<?xml version="1.0" encoding="UTF-8" standalone="no"?>
<!DOCTYPE svg PUBLIC "-//W3C//DTD SVG 1.1//EN" "http://www.w3.org/Graphics/SVG/1.1/DTD/svg11.dtd">
<svg width="100%" height="100%" viewBox="0 0 522 504" version="1.1" xmlns="http://www.w3.org/2000/svg" xmlns:xlink="http://www.w3.org/1999/xlink" xml:space="preserve" xmlns:serif="http://www.serif.com/" style="fill-rule:evenodd;clip-rule:evenodd;stroke-linejoin:round;stroke-miterlimit:2;">
    <g>
        <path d="M332,504L510.4,504C516.8,504 522,498.8 522,492.4L522,314C522,209.1 436.9,124 332,124C227.1,124 142,209.1 142,314C142,418.9 227.1,504 332,504Z" style="fill:rgb(55,71,133);fill-opacity:0.5;fill-rule:nonzero;"/>
    </g>
    <g>
        <path d="M190,380L11.6,380C5.2,380 0,374.8 0,368.4L0,190C0,85.1 85.1,0 190,0C294.9,0 380,85.1 380,190C380,294.9 294.9,380 190,380Z" style="fill:rgb(36,48,94);fill-rule:nonzero;"/>
    </g>
</svg>
