<?xml version="1.0" encoding="UTF-8" standalone="no"?>
<!DOCTYPE svg PUBLIC "-//W3C//DTD SVG 1.1//EN" "http://www.w3.org/Graphics/SVG/1.1/DTD/svg11.dtd">
<svg width="100%" height="100%" viewBox="0 0 120 120" version="1.1" xmlns="http://www.w3.org/2000/svg" xmlns:xlink="http://www.w3.org/1999/xlink" xml:space="preserve" xmlns:serif="http://www.serif.com/" style="fill-rule:evenodd;clip-rule:evenodd;stroke-linecap:round;stroke-linejoin:round;stroke-miterlimit:10;">
    <path d="M99.8,26.9L106.5,24.1" style="fill:none;fill-rule:nonzero;stroke:rgb(189,197,209);stroke-width:3px;"/>
    <path d="M47.1,26.9L40.4,24.1" style="fill:none;fill-rule:nonzero;stroke:rgb(189,197,209);stroke-width:3px;"/>
    <path d="M99.8,48.7L106.5,51.5" style="fill:none;fill-rule:nonzero;stroke:rgb(189,197,209);stroke-width:3px;"/>
    <path d="M47.1,48.7L40.4,51.5" style="fill:none;fill-rule:nonzero;stroke:rgb(189,197,209);stroke-width:3px;"/>
    <g>
        <path d="M84.4,11.5L87.1,4.8" style="fill:none;fill-rule:nonzero;stroke:rgb(189,197,209);stroke-width:3px;"/>
    </g>
    <g>
        <path d="M59.8,4.8L62.5,11.5" style="fill:none;fill-rule:nonzero;stroke:rgb(189,197,209);stroke-width:3px;"/>
    </g>
    <g>
        <path d="M48.2,12.5L53.3,17.6" style="fill:none;fill-rule:nonzero;stroke:rgb(189,197,209);stroke-width:3px;"/>
    </g>
    <g>
        <path d="M98.7,12.5L93.6,17.6" style="fill:none;fill-rule:nonzero;stroke:rgb(189,197,209);stroke-width:3px;"/>
    </g>
    <path d="M48.2,63.1L53.3,58" style="fill:none;fill-rule:nonzero;stroke:rgb(189,197,209);stroke-width:3px;"/>
    <path d="M98.7,63.1L93.6,58" style="fill:none;fill-rule:nonzero;stroke:rgb(189,197,209);stroke-width:3px;"/>
    <g>
        <path d="M73.5,2.1L73.5,9.3" style="fill:none;fill-rule:nonzero;stroke:rgb(189,197,209);stroke-width:3px;"/>
    </g>
    <g>
        <path d="M102,37.8L109.2,37.8" style="fill:none;fill-rule:nonzero;stroke:rgb(189,197,209);stroke-width:3px;"/>
    </g>
    <g>
        <path d="M37.7,37.8L45,37.8" style="fill:none;fill-rule:nonzero;stroke:rgb(189,197,209);stroke-width:3px;"/>
    </g>
    <path d="M84.3,96.7L101.6,92C103.7,91.4 105.9,92.6 106.6,94.7C107.2,96.6 106.4,98.8 104.5,99.7L71,116.5C67.3,118.3 63,118.5 59.3,116.9L40.7,109L31.3,109" style="fill:none;fill-rule:nonzero;stroke:rgb(189,197,209);stroke-width:3px;"/>
    <path d="M31.2,82.5L40.6,82.5L60.4,88.6L72,88.6C74.7,88.6 76.9,90.8 76.9,93.5C76.9,96 74.9,98 72.4,98L60.4,98C57.8,98 55.7,100.1 55.7,102.7" style="fill:none;fill-rule:nonzero;stroke:rgb(189,197,209);stroke-width:3px;"/>
    <path d="M12.2,112.3L29.8,112.3C30.6,112.3 31.2,111.7 31.2,110.9L31.2,80.6C31.2,79.8 30.6,79.2 29.8,79.2L12.2,79.2C11.4,79.2 10.8,79.8 10.8,80.6L10.8,110.9C10.8,111.6 11.4,112.3 12.2,112.3Z" style="fill:rgb(247,108,108);fill-rule:nonzero;"/>
    <path d="M84.1,62.6L84.1,54.8C89.8,51.2 93.6,45 93.6,37.8C93.6,26.7 84.6,17.7 73.5,17.7C62.4,17.7 53.4,26.7 53.4,37.8C53.4,45 57.2,51.3 62.9,54.8L62.9,62.6" style="fill:none;fill-rule:nonzero;stroke:rgb(189,197,209);stroke-width:3px;"/>
    <path d="M73.5,55.4L73.5,69.7" style="fill:none;fill-rule:nonzero;stroke:rgb(247,108,108);stroke-width:3px;"/>
    <path d="M84.1,69.7L62.8,69.7" style="fill:none;fill-rule:nonzero;stroke:rgb(247,108,108);stroke-width:3px;"/>
    <path d="M68.4,77.9L78.5,77.9" style="fill:none;fill-rule:nonzero;stroke:rgb(247,108,108);stroke-width:3px;"/>
    <path d="M21.8,85.7L21.8,88.8" style="fill:none;fill-rule:nonzero;stroke:white;stroke-width:3px;"/>
    <circle cx="76.8" cy="40.8" r="10.6" style="fill:rgb(189,197,209);fill-opacity:0.5;"/>
    <circle cx="73.2" cy="36.7" r="10.6" style="fill:rgb(247,108,108);"/>
    <path d="M73.2,41.7L73.2,39.7" style="fill:none;fill-rule:nonzero;stroke:white;stroke-width:3px;"/>
    <path d="M73.2,34.1" style="fill:none;fill-rule:nonzero;stroke:white;stroke-width:3px;"/>
</svg>
