<?xml version="1.0" encoding="UTF-8" standalone="no"?>
<!DOCTYPE svg PUBLIC "-//W3C//DTD SVG 1.1//EN" "http://www.w3.org/Graphics/SVG/1.1/DTD/svg11.dtd">
<svg width="100%" height="100%" viewBox="0 0 120 120" version="1.1" xmlns="http://www.w3.org/2000/svg" xmlns:xlink="http://www.w3.org/1999/xlink" xml:space="preserve" xmlns:serif="http://www.serif.com/" style="fill-rule:evenodd;clip-rule:evenodd;stroke-linecap:round;stroke-linejoin:round;stroke-miterlimit:10;">
    <g>
        <path d="M52.9,42.5C50.2,42.5 47.7,43.7 46.1,45.7L46.1,28.7L10.1,28.7C5.1,28.7 1,32.8 1,37.8L1,73.8L17.7,73.8C15.9,72.2 14.7,69.8 14.7,67.2C14.7,62.3 18.6,58.4 23.5,58.4C28.4,58.4 32.3,62.3 32.3,67.2C32.3,69.8 31.2,72.2 29.3,73.8L46,73.8L46,56.8C47.6,58.8 50,60 52.8,60C57.6,60 61.5,56.1 61.5,51.3C61.7,46.4 57.8,42.5 52.9,42.5Z" style="fill:none;fill-rule:nonzero;stroke:rgb(189,197,209);stroke-width:3px;"/>
        <path d="M17.8,73.8L1,73.8L1,109.8C1,114.8 5.1,118.9 10.1,118.9L46.1,118.9L46.1,102.2C44.5,104 42.1,105.2 39.5,105.2C34.6,105.2 30.7,101.3 30.7,96.4C30.7,91.5 34.6,87.6 39.5,87.6C42.1,87.6 44.5,88.7 46.1,90.6L46.1,73.8L29.5,73.8" style="fill:none;fill-rule:nonzero;stroke:rgb(189,197,209);stroke-width:3px;"/>
        <path d="M46.2,102.3L46.2,119L82.2,119C87.2,119 91.3,114.9 91.3,109.9L91.3,73.9L74.6,73.9C76.4,75.5 77.6,77.9 77.6,80.5C77.6,85.4 73.7,89.3 68.8,89.3C63.9,89.3 60,85.4 60,80.5C60,77.9 61.1,75.5 63,73.9L46.2,73.9L46.2,90.6" style="fill:none;fill-rule:nonzero;stroke:rgb(189,197,209);stroke-width:3px;"/>
        <path d="M105.9,16.1C104.5,11.3 99.4,8.5 94.6,9.9L60,19.8L64.6,35.9C65.6,33.7 67.6,32 70.1,31.2C74.8,29.8 79.7,32.5 81,37.2C82.4,41.9 79.7,46.8 75,48.1C72.5,48.8 69.9,48.4 67.9,47.1L72.5,63.2L88.2,58.7C87.1,60.7 86.7,63.1 87.4,65.5C88.8,70.2 93.7,73 98.5,71.6C103.2,70.2 106,65.3 104.6,60.5C103.9,58.1 102.3,56.2 100.3,55.1L115.9,50.6L105.9,16.1Z" style="fill:rgb(189,197,209);fill-opacity:0.5;fill-rule:nonzero;"/>
        <path d="M110,6.6C108.6,1.8 103.5,-1 98.7,0.4L64.1,10.4L68.7,26.5C69.7,24.3 71.7,22.6 74.2,21.8C78.9,20.4 83.8,23.1 85.1,27.8C86.5,32.5 83.8,37.4 79.1,38.7C76.6,39.4 74,39 72,37.7L76.6,53.8L92.3,49.3C91.2,51.3 90.8,53.7 91.5,56.1C92.9,60.8 97.8,63.6 102.6,62.2C107.3,60.8 110.1,55.9 108.7,51.1C108,48.7 106.4,46.8 104.4,45.7L120,41.2L110,6.6Z" style="fill:rgb(247,108,108);fill-rule:nonzero;"/>
    </g>
</svg>
