<?xml version="1.0" encoding="UTF-8" standalone="no"?>
<!DOCTYPE svg PUBLIC "-//W3C//DTD SVG 1.1//EN" "http://www.w3.org/Graphics/SVG/1.1/DTD/svg11.dtd">
<svg width="100%" height="100%" viewBox="0 0 120 120" version="1.1" xmlns="http://www.w3.org/2000/svg" xmlns:xlink="http://www.w3.org/1999/xlink" xml:space="preserve" xmlns:serif="http://www.serif.com/" style="fill-rule:evenodd;clip-rule:evenodd;stroke-linecap:round;stroke-linejoin:round;stroke-miterlimit:10;">
    <path d="M97,28.8L114.5,28.8C117.6,28.8 120.1,31.3 120.1,34.4L120.1,101.9C120.1,105 117.6,107.5 114.5,107.5L17.1,107.5C14,107.5 11.5,105 11.5,101.9L11.5,34.3C11.5,31.2 14,28.7 17.1,28.7L34.6,28.7" style="fill:rgb(189,197,209);fill-opacity:0.4;fill-rule:nonzero;"/>
    <path d="M86.7,21.3L104.2,21.3C107.3,21.3 109.8,23.8 109.8,26.9L109.8,94.4C109.8,97.5 107.3,100 104.2,100L6.8,100C3.7,100 1.2,97.5 1.2,94.4L1.2,26.9C1.2,23.8 3.7,21.3 6.8,21.3L24.3,21.3" style="fill:white;fill-rule:nonzero;stroke:rgb(189,197,209);stroke-width:3px;"/>
    <path d="M55.6,35.7L78.4,35.7" style="fill:none;fill-rule:nonzero;stroke:rgb(189,197,209);stroke-width:3px;"/>
    <path d="M55.6,29.4L78.4,29.4" style="fill:none;fill-rule:nonzero;stroke:rgb(247,108,108);stroke-width:3px;"/>
    <path d="M73.6,18L86.7,18L73.6,4.8L73.6,18Z" style="fill:none;fill-rule:nonzero;stroke:rgb(189,197,209);stroke-width:3px;"/>
    <path d="M24.3,73.3L24.3,4.8L73.6,4.8" style="fill:none;fill-rule:nonzero;stroke:rgb(189,197,209);stroke-width:3px;"/>
    <path d="M86.7,18L86.7,73.3" style="fill:none;fill-rule:nonzero;stroke:rgb(189,197,209);stroke-width:3px;"/>
    <path d="M43.5,28.8L45.4,32.6C45.5,32.7 45.6,32.8 45.7,32.8L49.8,33.4C50.2,33.5 50.3,33.9 50,34.2L47,37.1L47,37.5L47.7,41.6C47.8,42 47.4,42.2 47,42.1L43.3,40.1C43.2,40 43,40 42.9,40.1L39.2,42.1C38.9,42.3 38.5,42 38.5,41.6L39.2,37.5C39.2,37.4 39.2,37.2 39.1,37.1L36.1,34.2C35.8,33.9 36,33.5 36.3,33.4L40.4,32.8C40.5,32.8 40.7,32.7 40.7,32.6L42.6,28.8C42.9,28.5 43.4,28.5 43.5,28.8Z" style="fill:rgb(189,197,209);fill-opacity:0.5;fill-rule:nonzero;"/>
    <path d="M40.2,25.5L42.1,29.3C42.2,29.4 42.3,29.5 42.4,29.5L46.5,30.1C46.9,30.2 47,30.6 46.7,30.9L43.7,33.8C43.6,33.9 43.5,34.1 43.6,34.2L44.3,38.3C44.4,38.7 44,38.9 43.6,38.8L39.9,36.8C39.8,36.7 39.6,36.7 39.5,36.8L35.8,38.8C35.5,39 35.1,38.7 35.1,38.3L35.8,34.2C35.8,34.1 35.8,33.9 35.7,33.8L32.7,30.9C32.4,30.6 32.6,30.2 32.9,30.1L37,29.5C37.1,29.5 37.3,29.4 37.3,29.3L39.2,25.5C39.6,25.2 40.1,25.2 40.2,25.5Z" style="fill:rgb(247,108,108);fill-rule:nonzero;"/>
    <path d="M39.9,30.2L40.4,31.3L40.5,31.4L41.7,31.6C41.8,31.6 41.8,31.7 41.8,31.8L41,32.6L41,32.7L41.2,33.9C41.2,34 41.1,34.1 41,34L39.9,33.4L39.8,33.4L38.7,34C38.6,34 38.5,34 38.5,33.9L38.7,32.7L38.7,32.6L37.8,31.8C37.7,31.7 37.8,31.6 37.9,31.6L39.1,31.4C39.1,31.4 39.2,31.4 39.2,31.3L39.7,30.2C39.8,30.1 39.9,30.1 39.9,30.2Z" style="fill:white;fill-rule:nonzero;"/>
    <path d="M55.6,51L78.4,51" style="fill:none;fill-rule:nonzero;stroke:rgb(247,108,108);stroke-width:3px;"/>
    <path d="M55.6,57.4L78.4,57.4" style="fill:none;fill-rule:nonzero;stroke:rgb(189,197,209);stroke-width:3px;"/>
    <path d="M43.5,50.5L45.4,54.3C45.5,54.4 45.6,54.5 45.7,54.5L49.8,55.1C50.2,55.2 50.3,55.6 50,55.9L47,58.8L47,59.2L47.7,63.3C47.8,63.7 47.4,63.9 47,63.8L43.3,61.8C43.2,61.7 43,61.7 42.9,61.8L39.2,63.8C38.9,64 38.5,63.7 38.5,63.3L39.2,59.2C39.2,59.1 39.2,58.9 39.1,58.8L36.1,55.9C35.8,55.6 36,55.2 36.3,55.1L40.4,54.5C40.5,54.5 40.7,54.4 40.7,54.3L42.6,50.5C42.9,50.1 43.4,50.1 43.5,50.5Z" style="fill:rgb(189,197,209);fill-opacity:0.5;fill-rule:nonzero;"/>
    <path d="M40.2,47.2L42.1,51C42.2,51.1 42.3,51.2 42.4,51.2L46.5,51.8C46.9,51.9 47,52.3 46.7,52.6L43.7,55.5C43.6,55.6 43.5,55.8 43.6,55.9L44.3,60C44.4,60.4 44,60.6 43.6,60.5L39.9,58.5C39.8,58.4 39.6,58.4 39.5,58.5L35.8,60.5C35.5,60.7 35.1,60.4 35.1,60L35.8,55.9C35.8,55.8 35.8,55.6 35.7,55.5L32.7,52.6C32.4,52.3 32.6,51.9 32.9,51.8L37,51.2C37.1,51.2 37.3,51.1 37.3,51L39.2,47.2C39.6,46.8 40.1,46.8 40.2,47.2Z" style="fill:rgb(247,108,108);fill-rule:nonzero;"/>
    <path d="M95.3,73.3L15.7,73.3" style="fill:none;fill-rule:nonzero;stroke:rgb(189,197,209);stroke-width:3px;"/>
    <path d="M39.9,51.8L40.4,52.9L40.5,53L41.7,53.2C41.8,53.2 41.8,53.3 41.8,53.4L41,54.2L41,54.3L41.2,55.5C41.2,55.6 41.1,55.7 41,55.6L39.9,55L39.8,55L38.7,55.6C38.6,55.6 38.5,55.6 38.5,55.5L38.7,54.3L38.7,54.2L37.8,53.4C37.7,53.3 37.8,53.2 37.9,53.2L39.1,53C39.1,53 39.2,53 39.2,52.9L39.7,51.8L39.9,51.8Z" style="fill:white;fill-rule:nonzero;"/>
    <path d="M1.2,83L109.8,83" style="fill:none;fill-rule:nonzero;stroke:rgb(189,197,209);stroke-width:3px;"/>
    <path d="M58.5,91.8C58.5,93.5 57.1,94.8 55.5,94.8C53.8,94.8 52.5,93.4 52.5,91.8C52.5,90.1 53.9,88.8 55.5,88.8C57.2,88.7 58.5,90.1 58.5,91.8Z" style="fill:none;fill-rule:nonzero;stroke:rgb(247,108,108);stroke-width:3px;"/>
    <path d="M83.5,115.2L27.6,115.2" style="fill:none;fill-rule:nonzero;stroke:rgb(247,108,108);stroke-width:3px;"/>
    <path d="M41.9,99.1L38.7,114.3L72.4,114.3L69.1,99.1L41.9,99.1Z" style="fill:rgb(247,108,108);fill-rule:nonzero;"/>
</svg>
