<?xml version="1.0" encoding="UTF-8" standalone="no"?>
<!DOCTYPE svg PUBLIC "-//W3C//DTD SVG 1.1//EN" "http://www.w3.org/Graphics/SVG/1.1/DTD/svg11.dtd">
<svg width="100%" height="100%" viewBox="0 0 120 120" version="1.1" xmlns="http://www.w3.org/2000/svg" xmlns:xlink="http://www.w3.org/1999/xlink" xml:space="preserve" xmlns:serif="http://www.serif.com/" style="fill-rule:evenodd;clip-rule:evenodd;stroke-linecap:round;stroke-linejoin:round;stroke-miterlimit:10;">
    <path d="M112.1,8.4L22.7,8.4C19.3,8.4 16.6,11.2 16.6,14.5L16.6,37.9C16.6,41.3 19.4,44 22.7,44L27.8,44L27.8,54L43.5,44L57.1,44L67.4,54.3L77.8,44L91.4,44L107,54L107,44L112.1,44C115.5,44 118.2,41.2 118.2,37.9L118.2,14.5C118.2,11.1 115.5,8.4 112.1,8.4Z" style="fill:rgb(189,197,209);fill-opacity:0.5;fill-rule:nonzero;"/>
    <path d="M104.7,2.6L15.3,2.6C11.9,2.6 9.2,5.4 9.2,8.7L9.2,32.1C9.2,35.5 12,38.2 15.3,38.2L20.4,38.2L20.4,48.2L36.1,38.2L49.7,38.2L60,48.6L70.3,38.3L83.9,38.3L99.6,48.3L99.6,38.3L104.7,38.3C108.1,38.3 110.8,35.5 110.8,32.2L110.8,8.7C110.8,5.4 108.1,2.6 104.7,2.6Z" style="fill:rgb(247,108,108);fill-rule:nonzero;"/>
    <g>
        <path d="M106.4,76.8C106.8,75.6 107,74.2 107,72.9C107,66.3 102.3,61.4 96.5,61.4C90.7,61.4 86,66.3 86,72.9C86,74.3 86.2,75.6 86.6,76.8C85.8,77.3 85.2,78.3 85.2,79.4C85.2,80.8 86.1,82 87.4,82.4C88.9,86.9 92.4,90.1 96.5,90.1C100.6,90.1 104.1,86.9 105.6,82.4C106.9,82 107.8,80.9 107.8,79.4C107.7,78.3 107.2,77.4 106.4,76.8Z" style="fill:none;fill-rule:nonzero;stroke:rgb(189,197,209);stroke-width:3px;"/>
        <path d="M101.6,71L101.1,68.4C101.1,68.4 100,68.4 98.2,70C94.5,73.4 90.3,70.7 90.3,70.7" style="fill:none;fill-rule:nonzero;stroke:rgb(189,197,209);stroke-width:3px;"/>
        <path d="M105.6,95.9L115.6,100.1C117.5,101 118.2,102.9 118.2,104.8L118.2,112" style="fill:none;fill-rule:nonzero;stroke:rgb(189,197,209);stroke-width:3px;"/>
        <path d="M96.6,97.4L100.4,101.8L105.6,96.1L103.4,92.2" style="fill:none;fill-rule:nonzero;stroke:rgb(247,108,108);stroke-width:3px;"/>
        <path d="M87.5,95.9L77.7,99.9C77.1,100.3 76.6,100.8 76.1,101.4C75.4,102.3 75.1,103.4 75.1,104.6L75.1,112" style="fill:none;fill-rule:nonzero;stroke:rgb(189,197,209);stroke-width:3px;"/>
        <path d="M96.6,97.4L92.7,101.8L87.5,96.1L89.7,92.2" style="fill:none;fill-rule:nonzero;stroke:rgb(247,108,108);stroke-width:3px;"/>
        <path d="M103.4,92.2L96.6,97.4" style="fill:none;fill-rule:nonzero;stroke:rgb(247,108,108);stroke-width:3px;"/>
        <path d="M89.7,92.2L96.6,97.4" style="fill:none;fill-rule:nonzero;stroke:rgb(247,108,108);stroke-width:3px;"/>
        <path d="M118.2,112C112.1,115.4 104.7,117.4 96.7,117.4C88.7,117.4 81.3,115.4 75.2,112" style="fill:none;fill-rule:nonzero;stroke:rgb(189,197,209);stroke-width:3px;"/>
    </g>
    <g>
        <path d="M69.7,70.2C70.1,69 70.3,67.6 70.3,66.3C70.3,59.7 65.6,54.8 59.8,54.8C54,54.8 49.3,59.7 49.3,66.3C49.3,67.7 49.5,69 49.9,70.2C49.1,70.7 48.5,71.7 48.5,72.8C48.5,74.2 49.4,75.4 50.7,75.8C52.2,80.3 55.7,83.5 59.8,83.5C63.9,83.5 67.4,80.3 68.9,75.8C70.2,75.4 71.1,74.3 71.1,72.8C71.1,71.7 70.5,70.7 69.7,70.2Z" style="fill:none;fill-rule:nonzero;stroke:rgb(189,197,209);stroke-width:3px;"/>
        <path d="M65,64.4L64.5,61.8C64.5,61.8 63.4,61.8 61.6,63.4C57.9,66.8 53.7,64.1 53.7,64.1" style="fill:none;fill-rule:nonzero;stroke:rgb(189,197,209);stroke-width:3px;"/>
        <path d="M68.9,89.3L78.9,93.5C80.8,94.4 81.5,96.3 81.5,98.2" style="fill:none;fill-rule:nonzero;stroke:rgb(189,197,209);stroke-width:3px;"/>
        <path d="M59.9,90.8L63.8,95.1L69,89.5L66.7,85.6" style="fill:none;fill-rule:nonzero;stroke:rgb(247,108,108);stroke-width:3px;"/>
        <path d="M50.9,89.3L41.1,93.3C40.5,93.7 40,94.2 39.5,94.8C38.8,95.7 38.5,96.8 38.5,98" style="fill:none;fill-rule:nonzero;stroke:rgb(189,197,209);stroke-width:3px;"/>
        <path d="M59.9,90.8L56,95.1L50.8,89.5L53.1,85.6" style="fill:none;fill-rule:nonzero;stroke:rgb(247,108,108);stroke-width:3px;"/>
        <path d="M66.7,85.6L59.9,90.8" style="fill:none;fill-rule:nonzero;stroke:rgb(247,108,108);stroke-width:3px;"/>
        <path d="M53.1,85.6L59.9,90.8" style="fill:none;fill-rule:nonzero;stroke:rgb(247,108,108);stroke-width:3px;"/>
        <path d="M75.2,108.2C70.6,109.8 65.4,110.7 60,110.7C54.5,110.7 49.4,109.8 44.7,108.1" style="fill:none;fill-rule:nonzero;stroke:rgb(189,197,209);stroke-width:3px;"/>
    </g>
    <g>
        <path d="M33,76.8C33.4,75.6 33.6,74.2 33.6,72.9C33.6,66.3 28.9,61.4 23.1,61.4C17.3,61.4 12.6,66.3 12.6,72.9C12.6,74.3 12.8,75.6 13.2,76.8C12.4,77.3 11.8,78.3 11.8,79.4C11.8,80.8 12.7,82 14,82.4C15.5,86.9 19,90.1 23.1,90.1C27.2,90.1 30.7,86.9 32.2,82.4C33.5,82 34.4,80.9 34.4,79.4C34.4,78.3 33.8,77.4 33,76.8Z" style="fill:none;fill-rule:nonzero;stroke:rgb(189,197,209);stroke-width:3px;"/>
        <path d="M28.3,71L27.8,68.4C27.8,68.4 26.7,68.4 24.9,70C21.2,73.4 17,70.7 17,70.7" style="fill:none;fill-rule:nonzero;stroke:rgb(189,197,209);stroke-width:3px;"/>
        <path d="M32.2,95.9L42.2,100.1C44.1,101 44.8,102.9 44.8,104.8L44.8,112" style="fill:none;fill-rule:nonzero;stroke:rgb(189,197,209);stroke-width:3px;"/>
        <path d="M23.2,97.4L27.1,101.8L32.3,96.1L30.1,92.2" style="fill:none;fill-rule:nonzero;stroke:rgb(247,108,108);stroke-width:3px;"/>
        <path d="M14.2,95.9L4.4,99.9C3.8,100.3 3.3,100.8 2.8,101.4C2.1,102.3 1.8,103.4 1.8,104.6L1.8,112" style="fill:none;fill-rule:nonzero;stroke:rgb(189,197,209);stroke-width:3px;"/>
        <path d="M23.2,97.4L19.4,101.8L14.2,96.1L16.4,92.2" style="fill:none;fill-rule:nonzero;stroke:rgb(247,108,108);stroke-width:3px;"/>
        <path d="M30.1,92.2L23.2,97.4" style="fill:none;fill-rule:nonzero;stroke:rgb(247,108,108);stroke-width:3px;"/>
        <path d="M16.4,92.2L23.2,97.4" style="fill:none;fill-rule:nonzero;stroke:rgb(247,108,108);stroke-width:3px;"/>
        <path d="M44.8,112C38.7,115.4 31.3,117.4 23.3,117.4C15.3,117.4 7.9,115.4 1.8,112" style="fill:none;fill-rule:nonzero;stroke:rgb(189,197,209);stroke-width:3px;"/>
    </g>
    <path d="M60.4,9.1L49.2,25.8L59.5,25.8L58.1,37L70.8,20L59.5,20L60.4,9.1Z" style="fill:none;fill-rule:nonzero;stroke:white;stroke-width:3px;"/>
    <g opacity="0.5">
        <g>
            <path d="M81.6,14.6L96.7,14.6" style="fill:none;fill-rule:nonzero;stroke:white;stroke-width:3px;"/>
            <path d="M81.6,21.2L96.7,21.2" style="fill:none;fill-rule:nonzero;stroke:white;stroke-width:3px;"/>
            <path d="M81.6,27.8L87.8,27.8" style="fill:none;fill-rule:nonzero;stroke:white;stroke-width:3px;"/>
        </g>
        <g>
            <path d="M23.3,14.6L38.4,14.6" style="fill:none;fill-rule:nonzero;stroke:white;stroke-width:3px;"/>
            <path d="M23.3,21.2L38.4,21.2" style="fill:none;fill-rule:nonzero;stroke:white;stroke-width:3px;"/>
            <path d="M23.3,27.8L29.5,27.8" style="fill:none;fill-rule:nonzero;stroke:white;stroke-width:3px;"/>
        </g>
    </g>
</svg>
