<?xml version="1.0" encoding="UTF-8" standalone="no"?>
<!DOCTYPE svg PUBLIC "-//W3C//DTD SVG 1.1//EN" "http://www.w3.org/Graphics/SVG/1.1/DTD/svg11.dtd">
<svg width="100%" height="100%" viewBox="0 0 120 120" version="1.1" xmlns="http://www.w3.org/2000/svg" xmlns:xlink="http://www.w3.org/1999/xlink" xml:space="preserve" xmlns:serif="http://www.serif.com/" style="fill-rule:evenodd;clip-rule:evenodd;stroke-linecap:round;stroke-linejoin:round;stroke-miterlimit:10;">
    <path d="M71.3,78.1L97.6,78.1L100.6,85.3L68.2,85.3L71.3,78.1Z" style="fill:none;fill-rule:nonzero;stroke:rgb(189,197,209);stroke-width:3px;"/>
    <g opacity="0.5">
        <path d="M92,18.4L104.1,18.4C107.2,18.4 109.6,20.9 109.6,23.9L109.6,88.1" style="fill:none;fill-rule:nonzero;stroke:rgb(189,197,209);stroke-width:3px;"/>
        <path d="M50.4,96.7L7.1,96.7C4,96.7 1.6,94.2 1.6,91.2L1.6,23.9C1.6,20.8 4.1,18.4 7.1,18.4L45.4,18.4" style="fill:none;fill-rule:nonzero;stroke:rgb(189,197,209);stroke-width:3px;"/>
        <path d="M1.5,79.8L66.2,79.8" style="fill:none;fill-rule:nonzero;stroke:rgb(189,197,209);stroke-width:3px;"/>
        <path d="M102,79.8L109,79.8" style="fill:none;fill-rule:nonzero;stroke:rgb(189,197,209);stroke-width:3px;"/>
        <g>
            <path d="M42,96.7L38.8,111.9" style="fill:none;fill-rule:nonzero;stroke:rgb(189,197,209);stroke-width:3px;"/>
        </g>
        <path d="M50.4,111.9L27.8,111.9" style="fill:none;fill-rule:nonzero;stroke:rgb(189,197,209);stroke-width:3px;"/>
    </g>
    <g>
        <path d="M42.5,45.3C42.9,44 43.1,42.6 43.1,41.1C43.1,34.2 38.1,29.1 32,29.1C25.9,29.1 21,34.3 21,41.2C21,42.7 21.2,44.1 21.6,45.4C20.7,46 20.2,47 20.2,48.1C20.2,49.6 21.2,50.8 22.5,51.2C24.1,55.9 27.8,59.3 32.1,59.3C36.4,59.3 40.1,56 41.7,51.2C43,50.7 44,49.5 44,48C44,46.9 43.4,45.9 42.5,45.3Z" style="fill:none;fill-rule:nonzero;stroke:rgb(189,197,209);stroke-width:3px;"/>
        <path d="M39.8,40.6C39.5,39.3 38.6,39.3 37.5,39.3C37.1,39.3 36.9,36.4 36.9,36.4C36.9,36.4 35.7,36.4 33.7,38.2C29.5,41.9 24.9,39 24.9,39" style="fill:none;fill-rule:nonzero;stroke:rgb(189,197,209);stroke-width:3px;"/>
        <g>
            <path d="M41.7,64.1L52.2,68.5C54.1,69.5 54.9,71.4 54.9,73.4L54.9,79.4" style="fill:none;fill-rule:nonzero;stroke:rgb(189,197,209);stroke-width:3px;"/>
            <path d="M32.2,65.6L36.3,70.2L41.8,64.3L39.4,60.2" style="fill:none;fill-rule:nonzero;stroke:rgb(247,108,108);stroke-width:3px;"/>
            <path d="M22.7,64.1L12.4,68.3C11.7,68.7 11.2,69.2 10.8,69.8C10.1,70.8 9.7,71.9 9.7,73.2L9.7,79.4" style="fill:none;fill-rule:nonzero;stroke:rgb(189,197,209);stroke-width:3px;"/>
            <path d="M32.2,65.6L28.2,70.2L22.7,64.3L25,60.2" style="fill:none;fill-rule:nonzero;stroke:rgb(247,108,108);stroke-width:3px;"/>
            <path d="M39.4,60.2L32.2,65.6" style="fill:none;fill-rule:nonzero;stroke:rgb(247,108,108);stroke-width:3px;"/>
            <path d="M25,60.2L32.2,65.6" style="fill:none;fill-rule:nonzero;stroke:rgb(247,108,108);stroke-width:3px;"/>
        </g>
    </g>
    <path d="M63.1,109.8L63.1,118" style="fill:none;fill-rule:nonzero;stroke:rgb(189,197,209);stroke-width:3px;"/>
    <path d="M106.7,109.8L106.7,118" style="fill:none;fill-rule:nonzero;stroke:rgb(189,197,209);stroke-width:3px;"/>
    <g>
        <path d="M90.3,78.1L90.3,76C94,74 96.9,70.2 98.5,65.5C100.5,64.9 102,63.1 102,60.8C102,59.1 101.1,57.6 99.9,56.7C100.5,54.7 100.9,52.6 100.9,50.5C100.9,40.1 93.4,32.4 84.2,32.4C75,32.4 67.5,40.2 67.5,50.5C67.5,52.7 67.8,54.8 68.5,56.7C67.2,57.6 66.4,59.1 66.4,60.8C66.4,63 67.9,64.9 69.9,65.5C71.5,70.2 74.4,74 78.1,76L78.1,78.1" style="fill:none;fill-rule:nonzero;stroke:rgb(189,197,209);stroke-width:3px;"/>
        <path d="M118.5,118L118.5,97.6C118.5,94.6 117.3,91.7 114.4,90.2L100.7,85.2L100.7,85.3" style="fill:none;fill-rule:nonzero;stroke:rgb(189,197,209);stroke-width:3px;"/>
        <path d="M68.4,84.9L54.5,89.9C53.5,90.5 52.7,91.3 52,92.2C51,93.7 50.4,95.4 50.4,97.3L50.4,118" style="fill:none;fill-rule:nonzero;stroke:rgb(189,197,209);stroke-width:3px;"/>
    </g>
    <path d="M97.3,100.2L85.9,111.6" style="fill:none;fill-rule:nonzero;stroke:rgb(189,197,209);stroke-opacity:0.5;stroke-width:3px;"/>
    <path d="M96,108.5L92.2,112.3" style="fill:none;fill-rule:nonzero;stroke:rgb(189,197,209);stroke-opacity:0.5;stroke-width:3px;"/>
    <path d="M99.9,56.8C98.7,60.3 95.1,63.5 92.9,65.2C92.6,65.4 90.5,62.7 90.5,62.7C90.5,62.7 89.2,67.5 88.5,67.7C82.1,70.1 74.2,67.1 68.4,56.7" style="fill:none;fill-rule:nonzero;stroke:rgb(189,197,209);stroke-width:3px;"/>
    <g>
        <g>
            <path d="M87.2,7.5L49.2,7.5C46.8,7.5 44.9,9.4 44.9,11.8L44.9,26.1C44.9,28.5 46.8,30.4 49.2,30.4L52.8,30.4L52.8,37.4L63.9,30.4L87.2,30.4C89.6,30.4 91.5,28.5 91.5,26.1L91.5,11.8C91.5,9.4 89.6,7.5 87.2,7.5Z" style="fill:rgb(189,197,209);fill-opacity:0.5;fill-rule:nonzero;"/>
            <path d="M81.4,2L43.4,2C41,2 39.1,3.9 39.1,6.3L39.1,20.6C39.1,23 41,24.9 43.4,24.9L47,24.9L47,31.9L58.1,24.9L81.4,24.9C83.8,24.9 85.7,23 85.7,20.6L85.7,6.3C85.7,3.9 83.8,2 81.4,2Z" style="fill:rgb(247,108,108);fill-rule:nonzero;"/>
            <g>
                <path d="M73.9,10.3L50.9,10.3" style="fill:none;fill-rule:nonzero;stroke:white;stroke-width:3px;"/>
                <path d="M56.2,16.5L50.9,16.5" style="fill:none;fill-rule:nonzero;stroke:white;stroke-width:3px;"/>
            </g>
        </g>
    </g>
</svg>
