<?xml version="1.0" encoding="UTF-8" standalone="no"?>
<!DOCTYPE svg PUBLIC "-//W3C//DTD SVG 1.1//EN" "http://www.w3.org/Graphics/SVG/1.1/DTD/svg11.dtd">
<svg width="100%" height="100%" viewBox="0 0 120 120" version="1.1" xmlns="http://www.w3.org/2000/svg" xmlns:xlink="http://www.w3.org/1999/xlink" xml:space="preserve" xmlns:serif="http://www.serif.com/" style="fill-rule:evenodd;clip-rule:evenodd;stroke-linecap:round;stroke-linejoin:round;stroke-miterlimit:10;">
    <path d="M118.3,45L118.3,112.4C118.3,115.6 115.6,118.3 112.4,118.3L7.6,118.3C4.4,118.3 1.7,115.6 1.7,112.4L1.7,7.6C1.7,4.4 4.4,1.7 7.6,1.7L112.5,1.7C115.7,1.7 118.4,4.4 118.4,7.6L118.4,26.9" style="fill:none;fill-rule:nonzero;stroke:rgb(189,197,209);stroke-width:3px;"/>
    <rect x="23.1" y="22" width="86.6" height="20" style="fill:rgb(189,197,209);fill-opacity:0.5;"/>
    <rect x="15.8" y="16.9" width="88" height="20" style="fill:rgb(247,108,108);"/>
    <rect x="65" y="87.1" width="15.2" height="10.5" style="fill:none;stroke:rgb(189,197,209);stroke-width:3px;"/>
    <rect x="40.8" y="87.1" width="15.2" height="10.5" style="fill:none;stroke:rgb(189,197,209);stroke-width:3px;"/>
    <rect x="16.5" y="87.1" width="15.2" height="10.5" style="fill:none;stroke:rgb(189,197,209);stroke-width:3px;"/>
    <rect x="65" y="69.4" width="15.2" height="10.5" style="fill:none;stroke:rgb(189,197,209);stroke-width:3px;"/>
    <rect x="40.8" y="69.4" width="15.2" height="10.5" style="fill:none;stroke:rgb(189,197,209);stroke-width:3px;"/>
    <rect x="16.5" y="69.4" width="15.2" height="10.5" style="fill:none;stroke:rgb(189,197,209);stroke-width:3px;"/>
    <rect x="88.6" y="69.4" width="15.2" height="28.2" style="fill:none;stroke:rgb(247,108,108);stroke-width:3px;"/>
    <rect x="88.6" y="51.7" width="15.2" height="10.5" style="fill:none;stroke:rgb(189,197,209);stroke-width:3px;"/>
    <rect x="65" y="51.7" width="15.2" height="10.5" style="fill:none;stroke:rgb(189,197,209);stroke-width:3px;"/>
    <rect x="40.8" y="51.7" width="15.2" height="10.5" style="fill:none;stroke:rgb(189,197,209);stroke-width:3px;"/>
    <rect x="16.5" y="51.7" width="15.2" height="10.5" style="fill:none;stroke:rgb(189,197,209);stroke-width:3px;"/>
    <path d="M93,85.8L99.4,85.8" style="fill:none;fill-rule:nonzero;stroke:rgb(247,108,108);stroke-width:3px;"/>
    <path d="M93,81.3L99.4,81.3" style="fill:none;fill-rule:nonzero;stroke:rgb(247,108,108);stroke-width:3px;"/>
    <path d="M91.4,32.7L93.5,32.7" style="fill:none;fill-rule:nonzero;stroke:white;stroke-width:3px;"/>
    <path d="M91.4,20.9L93.5,20.9" style="fill:none;fill-rule:nonzero;stroke:white;stroke-width:3px;"/>
    <path d="M89.4,30L89.4,23.3" style="fill:none;fill-rule:nonzero;stroke:white;stroke-width:3px;"/>
    <path d="M96,30L96,23.3" style="fill:none;fill-rule:nonzero;stroke:white;stroke-width:3px;"/>
    <path d="M40.2,23.3L33,30.6" style="fill:none;fill-rule:nonzero;stroke:white;stroke-width:3px;"/>
    <path d="M31.4,23.3L24.1,30.6" style="fill:none;fill-rule:nonzero;stroke:white;stroke-width:3px;"/>
</svg>
