<?xml version="1.0" encoding="UTF-8" standalone="no"?>
<!DOCTYPE svg PUBLIC "-//W3C//DTD SVG 1.1//EN" "http://www.w3.org/Graphics/SVG/1.1/DTD/svg11.dtd">
<svg width="100%" height="100%" viewBox="0 0 1171 835" version="1.1" xmlns="http://www.w3.org/2000/svg" xmlns:xlink="http://www.w3.org/1999/xlink" xml:space="preserve" xmlns:serif="http://www.serif.com/" style="fill-rule:evenodd;clip-rule:evenodd;stroke-linejoin:round;stroke-miterlimit:2;">
    <path d="M1124.08,191.421L652.66,394.045L720.59,581.379L769.139,715.243L781.344,748.911L889.978,790.144L893.906,791.633L1007.38,834.689L1061.86,811.391L1136.07,779.493L1171,764.479L1124.08,191.421Z" style="fill:rgb(242,242,242);fill-rule:nonzero;"/>
    <path d="M1136.44,760.209L1136.34,765.065L1136.07,779.493L1061.86,811.391L1011.75,832.93L1009.63,825.862L1007.38,834.689L893.906,791.633L892.147,750.065L892.147,750.055L891.759,740.817L1114.07,725.893L1118.43,732.573L1119.29,733.9L1136.44,760.209Z" style="fill:rgb(47,46,65);fill-rule:nonzero;"/>
    <g transform="matrix(1,0,0,1,-14.5,-32.6553)">
        <path d="M989.81,351.248C989.81,351.248 974.89,404.959 971.907,404.959C968.923,404.959 1000.25,446.733 1000.25,446.733L1046.5,472.097L1062.92,403.467C1062.92,403.467 1048,366.168 1050.98,346.772L989.81,351.248Z" style="fill:rgb(255,184,184);fill-rule:nonzero;"/>
    </g>
    <circle cx="999.181" cy="284.278" r="55.202" style="fill:rgb(255,184,184);"/>
    <g transform="matrix(1,0,0,1,-14.5,-32.6553)">
        <path d="M1021.14,431.814L977.035,393.51L951.019,406.451L894.325,442.257C894.325,442.257 909.244,764.52 901.785,776.455C901.785,776.455 918.196,813.754 1015.17,791.375C1112.15,768.996 1137.51,766.012 1137.51,766.012L1116.63,569.074L1141.99,445.241L1056.79,385.666L1030.09,431.814L1021.14,431.814Z" style="fill:white;fill-rule:nonzero;"/>
    </g>
    <g transform="matrix(1,0,0,1,-14.5,-32.6553)">
        <path d="M857.026,557.138C857.026,557.138 834.647,627.26 851.058,634.72C867.47,642.179 880.897,639.196 880.897,639.196L906.261,578.025L857.026,557.138Z" style="fill:rgb(255,184,184);fill-rule:nonzero;"/>
    </g>
    <g transform="matrix(1,0,0,1,-14.5,-32.6553)">
        <path d="M1167.35,545.202L1180.78,607.864L1180.78,734.681C1180.78,734.681 1161.38,815.246 1146.46,794.359C1131.55,773.471 1131.85,766.857 1131.85,766.857L1150.94,737.664L1141.99,618.308L1118.2,561.372L1167.35,545.202Z" style="fill:rgb(255,184,184);fill-rule:nonzero;"/>
    </g>
    <g transform="matrix(1,0,0,1,-14.5,-32.6553)">
        <path d="M1065.9,261.731C1065.9,261.731 1048,222.94 1013.68,231.892C979.366,240.844 959.971,254.271 958.479,267.699C956.987,281.126 959.225,301.268 959.225,301.268C959.225,301.268 962.955,273.667 986.826,279.634C1010.7,285.602 1048,281.126 1048,281.126L1053.96,334.837C1053.96,334.837 1060.68,325.139 1068.14,331.107C1075.6,337.075 1089.77,273.667 1065.9,261.731Z" style="fill:rgb(47,46,65);fill-rule:nonzero;"/>
    </g>
    <path d="M1104.1,524.866L1109.49,552.923L1162.37,538.894L1152.65,512.996L1104.1,524.866Z" style="fill:rgb(63,61,86);fill-rule:nonzero;"/>
    <path d="M841.544,523.987L833.114,551.286L886.377,563.767L889.983,536.343L841.544,523.987Z" style="fill:rgb(63,61,86);fill-rule:nonzero;"/>
    <g transform="matrix(1,0,0,1,-14.5,-32.6553)">
        <path d="M1107.67,442.257L1141.99,445.241C1141.99,445.241 1180.78,551.17 1176.3,554.154C1171.83,557.138 1118.12,575.041 1110.66,570.566C1103.2,566.09 1107.67,442.257 1107.67,442.257Z" style="fill:white;fill-rule:nonzero;"/>
    </g>
    <g transform="matrix(1,0,0,1,-14.5,-32.6553)">
        <path d="M906.261,445.241L894.325,442.257C894.325,442.257 871.946,470.605 864.486,503.428C857.026,536.251 846.582,569.074 852.55,569.074C858.518,569.074 912.228,589.961 912.228,589.961L906.261,445.241Z" style="fill:white;fill-rule:nonzero;"/>
    </g>
    <circle cx="1012.37" cy="409.401" r="10.791" style="fill:rgb(63,61,86);"/>
    <g transform="matrix(1,0,0,1,-14.5,-32.6553)">
        <path d="M1110.19,632.852L994.917,669.19L947.872,519.959C992.287,513.731 1030.71,501.618 1063.14,483.621C1069.15,534.524 1084.51,584.307 1110.19,632.852Z" style="fill:rgb(230,230,230);fill-rule:nonzero;"/>
    </g>
    <g transform="matrix(1,0,0,1,-14.5,-32.6553)">
        <path d="M1099.39,649.039L984.126,685.377L937.081,536.146C981.496,529.918 1019.92,517.805 1052.35,499.808C1058.36,550.711 1073.72,600.494 1099.39,649.039Z" style="fill:white;fill-rule:nonzero;"/>
    </g>
    <g transform="matrix(1,0,0,1,-14.5,-32.6553)">
        <path d="M864.486,591.453C864.486,591.453 846.582,624.276 851.058,634.72C855.534,645.163 892.833,651.131 897.309,651.131C901.785,651.131 955.495,639.195 955.495,639.195C955.495,639.195 1037.55,600.405 1013.68,581.009C989.81,561.614 945.051,607.864 945.051,607.864L909.244,607.864L889.849,594.437L864.486,591.453Z" style="fill:rgb(255,184,184);fill-rule:nonzero;"/>
    </g>
    <rect x="1" y="134.833" width="195" height="87.167" style="fill:rgb(242,242,242);"/>
    <rect x="676" y="418" width="34" height="30" style="fill:rgb(180,180,180);"/>
    <rect x="608" y="418" width="34" height="30" style="fill:rgb(180,180,180);"/>
    <rect x="744" y="352" width="34" height="34" style="fill:white;"/>
    <rect x="710" y="386" width="34" height="32" style="fill:rgb(180,180,180);"/>
    <rect x="642" y="386" width="34" height="32" style="fill:rgb(180,180,180);"/>
    <rect x="239" y="446" width="34" height="30" style="fill:white;"/>
    <rect x="545" y="414" width="34" height="32" style="fill:rgb(180,180,180);"/>
    <rect x="341" y="414" width="34" height="32" style="fill:rgb(180,180,180);"/>
    <rect x="307" y="380" width="34" height="34" style="fill:rgb(180,180,180);"/>
    <rect x="477" y="414" width="34" height="32" style="fill:rgb(180,180,180);"/>
    <rect x="443" y="380" width="34" height="34" style="fill:rgb(180,180,180);"/>
    <rect x="409" y="414" width="34" height="32" style="fill:rgb(180,180,180);"/>
    <rect x="273" y="414" width="34" height="32" style="fill:rgb(180,180,180);"/>
    <rect x="511" y="380" width="34" height="34" style="fill:white;"/>
    <g transform="matrix(1,0,0,1,-14.5,-32.6553)">
        <path d="M679.241,360.15L661.577,341.212L680.515,323.549L698.179,342.486L679.241,360.15ZM664.393,341.31L679.339,357.335L695.364,342.388L680.417,326.364L664.393,341.31Z" style="fill:rgb(180,180,180);fill-rule:nonzero;"/>
    </g>
    <g transform="matrix(1,0,0,1,-14.5,-32.6553)">
        <path d="M440.16,282.239L414.263,282.239L414.263,256.342L440.16,256.342L440.16,282.239ZM416.255,280.247L438.168,280.247L438.168,258.334L416.255,258.334L416.255,280.247Z" style="fill:rgb(180,180,180);fill-rule:nonzero;"/>
    </g>
    <g transform="matrix(1,0,0,1,-14.5,-32.6553)">
        <path d="M921.16,232.239L895.263,232.239L895.263,206.342L921.16,206.342L921.16,232.239ZM897.255,230.247L919.168,230.247L919.168,208.334L897.255,208.334L897.255,230.247Z" style="fill:rgb(180,180,180);fill-rule:nonzero;"/>
    </g>
    <g transform="matrix(1,0,0,1,-14.5,-32.6553)">
        <path d="M268.931,496.723L267.401,495.229C274.44,487.248 279.776,477.913 283.081,467.797C288.285,452.137 290.827,427.405 273.383,398.515C255.537,368.956 254.733,344.947 257.202,330.012C259.889,313.76 266.742,304.65 267.033,304.271L268.732,305.57C268.664,305.659 261.87,314.72 259.292,330.487C256.912,345.043 257.742,368.47 275.214,397.409C293.103,427.038 290.453,452.457 285.081,468.563C279.259,486.013 269.351,496.294 268.931,496.723Z" style="fill:rgb(180,180,180);fill-rule:nonzero;"/>
    </g>
    <g transform="matrix(1,0,0,1,-14.5,-32.6553)">
        <path d="M538.931,428.723L537.401,427.229C544.44,419.248 549.776,409.913 553.081,399.797C558.285,384.137 560.827,359.405 543.383,330.515C525.537,300.956 524.733,276.947 527.202,262.012C529.889,245.76 536.742,236.65 537.033,236.271L538.732,237.57C538.664,237.659 531.87,246.72 529.292,262.487C526.912,277.043 527.742,300.47 545.214,329.409C563.103,359.038 560.453,384.457 555.081,400.563C549.259,418.013 539.351,428.294 538.931,428.723Z" style="fill:rgb(180,180,180);fill-rule:nonzero;"/>
    </g>
    <g transform="matrix(1,0,0,1,-14.5,-32.6553)">
        <path d="M773.931,402.723L772.401,401.229C779.44,393.248 784.776,383.913 788.081,373.797C793.285,358.137 795.827,333.405 778.383,304.515C760.537,274.956 759.733,250.947 762.202,236.012C764.889,219.76 771.742,210.65 772.033,210.271L773.732,211.57C773.664,211.659 766.87,220.72 764.292,236.487C761.912,251.043 762.742,274.47 780.214,303.409C798.103,333.038 795.453,358.457 790.081,374.563C784.259,392.013 774.351,402.294 773.931,402.723Z" style="fill:rgb(180,180,180);fill-rule:nonzero;"/>
    </g>
    <rect x="51.444" y="162.347" width="94.111" height="2.139" style="fill:rgb(180,180,180);"/>
    <rect x="51.444" y="177.347" width="94.111" height="2.139" style="fill:rgb(180,180,180);"/>
    <rect x="51.444" y="192.347" width="94.111" height="2.139" style="fill:rgb(180,180,180);"/>
    <rect x="578.444" y="19.347" width="94.111" height="2.139" style="fill:rgb(180,180,180);"/>
    <rect x="578.444" y="34.347" width="94.111" height="2.139" style="fill:rgb(180,180,180);"/>
    <rect x="578.444" y="49.347" width="94.111" height="2.139" style="fill:rgb(180,180,180);"/>
    <rect x="799.444" y="351.347" width="94.111" height="2.139" style="fill:rgb(180,180,180);"/>
    <rect x="799.444" y="366.347" width="94.111" height="2.139" style="fill:rgb(180,180,180);"/>
    <rect x="799.444" y="381.347" width="94.111" height="2.139" style="fill:rgb(180,180,180);"/>
    <rect x="208.444" y="501.347" width="94.111" height="2.139" style="fill:rgb(180,180,180);"/>
    <rect x="208.444" y="516.347" width="94.111" height="2.139" style="fill:rgb(180,180,180);"/>
    <rect x="208.444" y="531.347" width="94.111" height="2.139" style="fill:rgb(180,180,180);"/>
    <g transform="matrix(1,0,0,1,-14.5,-32.6553)">
        <path d="M152.36,143.276C168.62,106.803 193.127,82.81 225.2,71.965C249.012,63.912 276.551,63.151 307.051,69.702C329.541,74.57 351.124,82.953 371.002,94.543C476.884,155.993 542.344,156.539 578.614,146.177C618.383,134.815 632.937,108.155 633.079,107.887L634.847,108.824C634.701,109.098 619.816,136.456 579.243,148.078C555.852,154.777 528.522,155.054 498.012,148.9C460.041,141.24 416.971,123.534 369.998,96.273C350.301,84.789 328.916,76.481 306.632,71.658C256.608,60.913 189.554,64.757 154.186,144.09L152.36,143.276Z" style="fill:rgb(180,180,180);fill-rule:nonzero;"/>
    </g>
    <circle cx="256" cy="237" r="36" style="fill:rgb(180,180,180);"/>
    <circle cx="528" cy="174" r="36" style="fill:rgb(180,180,180);"/>
    <circle cx="763" cy="142" r="36" style="fill:rgb(180,180,180);"/>
    <g transform="matrix(1,0,0,1,-14.5,-32.6553)">
        <path d="M237.5,255.655L14.5,255.655L14.5,141.655L237.5,141.655L237.5,255.655ZM16.5,253.655L235.5,253.655L235.5,143.655L16.5,143.655L16.5,253.655Z" style="fill:rgb(180,180,180);fill-rule:nonzero;"/>
    </g>
    <rect x="282" y="59.833" width="195" height="87.167" style="fill:rgb(242,242,242);"/>
    <rect x="332.444" y="87.347" width="94.111" height="2.139" style="fill:rgb(180,180,180);"/>
    <rect x="332.444" y="102.347" width="94.111" height="2.139" style="fill:rgb(180,180,180);"/>
    <rect x="329.444" y="114.347" width="94.111" height="2.139" style="fill:rgb(180,180,180);"/>
    <g transform="matrix(1,0,0,1,-14.5,-32.6553)">
        <path d="M518.5,180.655L295.5,180.655L295.5,66.655L518.5,66.655L518.5,180.655ZM297.5,178.655L516.5,178.655L516.5,68.655L297.5,68.655L297.5,178.655Z" style="fill:rgb(180,180,180);fill-rule:nonzero;"/>
    </g>
    <rect x="785" y="25.833" width="195" height="87.167" style="fill:rgb(242,242,242);"/>
    <rect x="835.444" y="53.347" width="94.111" height="2.139" style="fill:rgb(180,180,180);"/>
    <rect x="835.444" y="68.347" width="94.111" height="2.139" style="fill:rgb(180,180,180);"/>
    <rect x="835.444" y="83.347" width="94.111" height="2.139" style="fill:rgb(180,180,180);"/>
    <g transform="matrix(1,0,0,1,-14.5,-32.6553)">
        <path d="M1021.5,146.655L798.5,146.655L798.5,32.655L1021.5,32.655L1021.5,146.655ZM800.5,144.655L1019.5,144.655L1019.5,34.655L800.5,34.655L800.5,144.655Z" style="fill:rgb(180,180,180);fill-rule:nonzero;"/>
    </g>
</svg>
